<?xml version="1.0" encoding="UTF-8"?>
<svg id="Capa_1" xmlns="http://www.w3.org/2000/svg" version="1.1" viewBox="0 0 48 48">
  <!-- Generator: Adobe Illustrator 29.0.0, SVG Export Plug-In . SVG Version: 2.1.0 Build 186)  -->
  <defs>
    <style>
      .st0 {
        fill: #fff;
      }
    </style>
  </defs>
  <g id="_Слой_17" data-name="Слой_17">
    <path class="st0" d="M24,9.6c-6.4,0-10.4,3.2-12,9.6,2.4-3.2,5.2-4.4,8.4-3.6,1.8.5,3.1,1.8,4.6,3.2,2.4,2.4,5.1,5.2,11,5.2s10.4-3.2,12-9.6c-2.4,3.2-5.2,4.4-8.4,3.6-1.8-.5-3.1-1.8-4.6-3.2-2.4-2.4-5.1-5.2-11-5.2h0ZM12,24c-6.4,0-10.4,3.2-12,9.6,2.4-3.2,5.2-4.4,8.4-3.6,1.8.5,3.1,1.8,4.6,3.2,2.4,2.4,5.1,5.2,11,5.2s10.4-3.2,12-9.6c-2.4,3.2-5.2,4.4-8.4,3.6-1.8-.5-3.1-1.8-4.6-3.2-2.4-2.4-5.1-5.2-11-5.2h0Z"/>
  </g>
</svg>